solid CATIA STL
  facet normal  0.000000e+000  0.000000e+000  1.000000e+000
    outer loop
      vertex  2.561667e+000  1.781679e+001  7.000000e+001
      vertex  1.408344e-015  2.300000e+001  7.000000e+001
      vertex -2.561667e+000  1.781679e+001  7.000000e+001
    endloop
  endfacet
  facet normal  0.000000e+000  -0.000000e+000  1.000000e+000
    outer loop
      vertex -1.150000e+001 -1.991858e+001  7.000000e+001
      vertex -5.952838e+000 -2.221629e+001  7.000000e+001
      vertex -2.561667e+000 -1.781679e+001  7.000000e+001
    endloop
  endfacet
  facet normal  0.000000e+000  0.000000e+000  1.000000e+000
    outer loop
      vertex -1.150000e+001 -1.991858e+001  7.000000e+001
      vertex -2.561667e+000 -1.781679e+001  7.000000e+001
      vertex -7.477470e+000 -1.637338e+001  7.000000e+001
    endloop
  endfacet
  facet normal  0.000000e+000  0.000000e+000  1.000000e+000
    outer loop
      vertex -1.150000e+001 -1.991858e+001  7.000000e+001
      vertex -7.477470e+000 -1.637338e+001  7.000000e+001
      vertex -1.626346e+001 -1.626346e+001  7.000000e+001
    endloop
  endfacet
  facet normal  0.000000e+000  0.000000e+000  9.999999e-001
    outer loop
      vertex  5.952838e+000 -2.221629e+001  7.000000e+001
      vertex  1.150000e+001 -1.991858e+001  7.000000e+001
      vertex -4.225031e-015 -2.300000e+001  7.000000e+001
    endloop
  endfacet
  facet normal  0.000000e+000  0.000000e+000  1.000000e+000
    outer loop
      vertex -4.225031e-015 -2.300000e+001  7.000000e+001
      vertex  1.150000e+001 -1.991858e+001  7.000000e+001
      vertex  2.561667e+000 -1.781679e+001  7.000000e+001
    endloop
  endfacet
  facet normal  0.000000e+000  0.000000e+000  1.000000e+000
    outer loop
      vertex -4.225031e-015 -2.300000e+001  7.000000e+001
      vertex  2.561667e+000 -1.781679e+001  7.000000e+001
      vertex -5.952838e+000 -2.221629e+001  7.000000e+001
    endloop
  endfacet
  facet normal  0.000000e+000  0.000000e+000  1.000000e+000
    outer loop
      vertex -5.952838e+000 -2.221629e+001  7.000000e+001
      vertex  2.561667e+000 -1.781679e+001  7.000000e+001
      vertex -2.561667e+000 -1.781679e+001  7.000000e+001
    endloop
  endfacet
  facet normal  -0.000000e+000  0.000000e+000  1.000000e+000
    outer loop
      vertex  1.408344e-015  2.300000e+001  7.000000e+001
      vertex -5.952838e+000  2.221629e+001  7.000000e+001
      vertex -2.561667e+000  1.781679e+001  7.000000e+001
    endloop
  endfacet
  facet normal  0.000000e+000  0.000000e+000  1.000000e+000
    outer loop
      vertex -2.561667e+000  1.781679e+001  7.000000e+001
      vertex -5.952838e+000  2.221629e+001  7.000000e+001
      vertex -1.150000e+001  1.991858e+001  7.000000e+001
    endloop
  endfacet
  facet normal  0.000000e+000  0.000000e+000  1.000000e+000
    outer loop
      vertex -2.561667e+000  1.781679e+001  7.000000e+001
      vertex -1.150000e+001  1.991858e+001  7.000000e+001
      vertex -7.477470e+000  1.637338e+001  7.000000e+001
    endloop
  endfacet
  facet normal  0.000000e+000  0.000000e+000  1.000000e+000
    outer loop
      vertex -7.477470e+000  1.637338e+001  7.000000e+001
      vertex -1.150000e+001  1.991858e+001  7.000000e+001
      vertex -1.626346e+001  1.626346e+001  7.000000e+001
    endloop
  endfacet
  facet normal  -0.000000e+000  0.000000e+000  1.000000e+000
    outer loop
      vertex -7.477470e+000  1.637338e+001  7.000000e+001
      vertex -1.626346e+001  1.626346e+001  7.000000e+001
      vertex -1.178749e+001  1.360349e+001  7.000000e+001
    endloop
  endfacet
  facet normal  0.000000e+000  0.000000e+000  1.000000e+000
    outer loop
      vertex -1.178749e+001  1.360349e+001  7.000000e+001
      vertex -1.626346e+001  1.626346e+001  7.000000e+001
      vertex -1.991858e+001  1.150000e+001  7.000000e+001
    endloop
  endfacet
  facet normal  -0.000000e+000  0.000000e+000  1.000000e+000
    outer loop
      vertex -1.178749e+001  1.360349e+001  7.000000e+001
      vertex -1.991858e+001  1.150000e+001  7.000000e+001
      vertex -1.514256e+001  9.731535e+000  7.000000e+001
    endloop
  endfacet
  facet normal  0.000000e+000  0.000000e+000  1.000000e+000
    outer loop
      vertex  5.952838e+000  2.221629e+001  7.000000e+001
      vertex  1.408344e-015  2.300000e+001  7.000000e+001
      vertex  1.150000e+001  1.991858e+001  7.000000e+001
    endloop
  endfacet
  facet normal  0.000000e+000  0.000000e+000  1.000000e+000
    outer loop
      vertex  1.150000e+001  1.991858e+001  7.000000e+001
      vertex  1.408344e-015  2.300000e+001  7.000000e+001
      vertex  2.561667e+000  1.781679e+001  7.000000e+001
    endloop
  endfacet
  facet normal  -0.000000e+000  0.000000e+000  1.000000e+000
    outer loop
      vertex  1.150000e+001  1.991858e+001  7.000000e+001
      vertex  2.561667e+000  1.781679e+001  7.000000e+001
      vertex  1.626346e+001  1.626346e+001  7.000000e+001
    endloop
  endfacet
  facet normal  0.000000e+000  0.000000e+000  1.000000e+000
    outer loop
      vertex  1.626346e+001  1.626346e+001  7.000000e+001
      vertex  2.561667e+000  1.781679e+001  7.000000e+001
      vertex  7.477470e+000  1.637338e+001  7.000000e+001
    endloop
  endfacet
  facet normal  0.000000e+000  0.000000e+000  1.000000e+000
    outer loop
      vertex  1.626346e+001  1.626346e+001  7.000000e+001
      vertex  7.477470e+000  1.637338e+001  7.000000e+001
      vertex  1.991858e+001  1.150000e+001  7.000000e+001
    endloop
  endfacet
  facet normal  0.000000e+000  0.000000e+000  1.000000e+000
    outer loop
      vertex  1.991858e+001  1.150000e+001  7.000000e+001
      vertex  7.477470e+000  1.637338e+001  7.000000e+001
      vertex  1.178749e+001  1.360349e+001  7.000000e+001
    endloop
  endfacet
  facet normal  0.000000e+000  0.000000e+000  9.999999e-001
    outer loop
      vertex  1.991858e+001  1.150000e+001  7.000000e+001
      vertex  1.178749e+001  1.360349e+001  7.000000e+001
      vertex  1.514256e+001  9.731535e+000  7.000000e+001
    endloop
  endfacet
  facet normal  0.000000e+000  0.000000e+000  9.999999e-001
    outer loop
      vertex -1.514256e+001  9.731535e+000  7.000000e+001
      vertex -1.991858e+001  1.150000e+001  7.000000e+001
      vertex -1.727087e+001  5.071186e+000  7.000000e+001
    endloop
  endfacet
  facet normal  0.000000e+000  0.000000e+000  1.000000e+000
    outer loop
      vertex -1.727087e+001  5.071186e+000  7.000000e+001
      vertex -1.991858e+001  1.150000e+001  7.000000e+001
      vertex -2.221629e+001  5.952838e+000  7.000000e+001
    endloop
  endfacet
  facet normal  0.000000e+000  0.000000e+000  1.000000e+000
    outer loop
      vertex -1.727087e+001  5.071186e+000  7.000000e+001
      vertex -2.221629e+001  5.952838e+000  7.000000e+001
      vertex -1.800000e+001  2.204364e-015  7.000000e+001
    endloop
  endfacet
  facet normal  0.000000e+000  0.000000e+000  1.000000e+000
    outer loop
      vertex -1.800000e+001  2.204364e-015  7.000000e+001
      vertex -2.221629e+001  5.952838e+000  7.000000e+001
      vertex -2.300000e+001  2.816688e-015  7.000000e+001
    endloop
  endfacet
  facet normal  0.000000e+000  0.000000e+000  1.000000e+000
    outer loop
      vertex -1.800000e+001  2.204364e-015  7.000000e+001
      vertex -2.300000e+001  2.816688e-015  7.000000e+001
      vertex -1.727087e+001 -5.071186e+000  7.000000e+001
    endloop
  endfacet
  facet normal  0.000000e+000  0.000000e+000  1.000000e+000
    outer loop
      vertex -1.727087e+001 -5.071186e+000  7.000000e+001
      vertex -2.300000e+001  2.816688e-015  7.000000e+001
      vertex -2.221629e+001 -5.952838e+000  7.000000e+001
    endloop
  endfacet
  facet normal  -0.000000e+000  0.000000e+000  1.000000e+000
    outer loop
      vertex -1.727087e+001 -5.071186e+000  7.000000e+001
      vertex -2.221629e+001 -5.952838e+000  7.000000e+001
      vertex -1.514256e+001 -9.731535e+000  7.000000e+001
    endloop
  endfacet
  facet normal  0.000000e+000  0.000000e+000  9.999999e-001
    outer loop
      vertex -1.514256e+001 -9.731535e+000  7.000000e+001
      vertex -2.221629e+001 -5.952838e+000  7.000000e+001
      vertex -1.991858e+001 -1.150000e+001  7.000000e+001
    endloop
  endfacet
  facet normal  -0.000000e+000  0.000000e+000  1.000000e+000
    outer loop
      vertex -1.514256e+001 -9.731535e+000  7.000000e+001
      vertex -1.991858e+001 -1.150000e+001  7.000000e+001
      vertex -1.178749e+001 -1.360349e+001  7.000000e+001
    endloop
  endfacet
  facet normal  0.000000e+000  0.000000e+000  1.000000e+000
    outer loop
      vertex -1.178749e+001 -1.360349e+001  7.000000e+001
      vertex -1.991858e+001 -1.150000e+001  7.000000e+001
      vertex -1.626346e+001 -1.626346e+001  7.000000e+001
    endloop
  endfacet
  facet normal  -0.000000e+000  0.000000e+000  1.000000e+000
    outer loop
      vertex -1.178749e+001 -1.360349e+001  7.000000e+001
      vertex -1.626346e+001 -1.626346e+001  7.000000e+001
      vertex -7.477470e+000 -1.637338e+001  7.000000e+001
    endloop
  endfacet
  facet normal  -0.000000e+000  0.000000e+000  9.999999e-001
    outer loop
      vertex  1.991858e+001  1.150000e+001  7.000000e+001
      vertex  1.514256e+001  9.731535e+000  7.000000e+001
      vertex  2.221629e+001  5.952838e+000  7.000000e+001
    endloop
  endfacet
  facet normal  0.000000e+000  0.000000e+000  1.000000e+000
    outer loop
      vertex  2.221629e+001  5.952838e+000  7.000000e+001
      vertex  1.514256e+001  9.731535e+000  7.000000e+001
      vertex  1.727087e+001  5.071186e+000  7.000000e+001
    endloop
  endfacet
  facet normal  -0.000000e+000  0.000000e+000  1.000000e+000
    outer loop
      vertex  2.221629e+001  5.952838e+000  7.000000e+001
      vertex  1.727087e+001  5.071186e+000  7.000000e+001
      vertex  2.300000e+001  0.000000e+000  7.000000e+001
    endloop
  endfacet
  facet normal  0.000000e+000  0.000000e+000  1.000000e+000
    outer loop
      vertex  2.300000e+001  0.000000e+000  7.000000e+001
      vertex  1.727087e+001  5.071186e+000  7.000000e+001
      vertex  1.800000e+001  0.000000e+000  7.000000e+001
    endloop
  endfacet
  facet normal  -0.000000e+000  0.000000e+000  1.000000e+000
    outer loop
      vertex  2.300000e+001  0.000000e+000  7.000000e+001
      vertex  1.800000e+001  0.000000e+000  7.000000e+001
      vertex  2.221629e+001 -5.952838e+000  7.000000e+001
    endloop
  endfacet
  facet normal  0.000000e+000  0.000000e+000  1.000000e+000
    outer loop
      vertex  2.221629e+001 -5.952838e+000  7.000000e+001
      vertex  1.800000e+001  0.000000e+000  7.000000e+001
      vertex  1.727087e+001 -5.071186e+000  7.000000e+001
    endloop
  endfacet
  facet normal  0.000000e+000  0.000000e+000  1.000000e+000
    outer loop
      vertex  2.221629e+001 -5.952838e+000  7.000000e+001
      vertex  1.727087e+001 -5.071186e+000  7.000000e+001
      vertex  1.991858e+001 -1.150000e+001  7.000000e+001
    endloop
  endfacet
  facet normal  0.000000e+000  0.000000e+000  9.999999e-001
    outer loop
      vertex  1.991858e+001 -1.150000e+001  7.000000e+001
      vertex  1.727087e+001 -5.071186e+000  7.000000e+001
      vertex  1.514256e+001 -9.731535e+000  7.000000e+001
    endloop
  endfacet
  facet normal  0.000000e+000  0.000000e+000  9.999999e-001
    outer loop
      vertex  1.991858e+001 -1.150000e+001  7.000000e+001
      vertex  1.514256e+001 -9.731535e+000  7.000000e+001
      vertex  1.626346e+001 -1.626346e+001  7.000000e+001
    endloop
  endfacet
  facet normal  0.000000e+000  0.000000e+000  9.999999e-001
    outer loop
      vertex  1.626346e+001 -1.626346e+001  7.000000e+001
      vertex  1.514256e+001 -9.731535e+000  7.000000e+001
      vertex  1.178749e+001 -1.360349e+001  7.000000e+001
    endloop
  endfacet
  facet normal  0.000000e+000  0.000000e+000  1.000000e+000
    outer loop
      vertex  1.626346e+001 -1.626346e+001  7.000000e+001
      vertex  1.178749e+001 -1.360349e+001  7.000000e+001
      vertex  7.477470e+000 -1.637338e+001  7.000000e+001
    endloop
  endfacet
  facet normal  0.000000e+000  0.000000e+000  1.000000e+000
    outer loop
      vertex  7.477470e+000 -1.637338e+001  7.000000e+001
      vertex  2.561667e+000 -1.781679e+001  7.000000e+001
      vertex  1.626346e+001 -1.626346e+001  7.000000e+001
    endloop
  endfacet
  facet normal  0.000000e+000  0.000000e+000  1.000000e+000
    outer loop
      vertex  1.626346e+001 -1.626346e+001  7.000000e+001
      vertex  2.561667e+000 -1.781679e+001  7.000000e+001
      vertex  1.150000e+001 -1.991858e+001  7.000000e+001
    endloop
  endfacet
  facet normal -2.817324e-001  9.594930e-001  0.000000e+000
    outer loop
      vertex  2.561667e+000 -1.781679e+001  5.000000e+000
      vertex  7.477470e+000 -1.637338e+001  7.000000e+001
      vertex  7.477470e+000 -1.637338e+001  5.000000e+000
    endloop
  endfacet
  facet normal -5.406410e-001  8.412535e-001  0.000000e+000
    outer loop
      vertex  7.477470e+000 -1.637338e+001  5.000000e+000
      vertex  7.477470e+000 -1.637338e+001  7.000000e+001
      vertex  1.178749e+001 -1.360349e+001  7.000000e+001
    endloop
  endfacet
  facet normal -5.406410e-001  8.412535e-001  0.000000e+000
    outer loop
      vertex  7.477470e+000 -1.637338e+001  5.000000e+000
      vertex  1.178749e+001 -1.360349e+001  7.000000e+001
      vertex  1.178749e+001 -1.360349e+001  5.000000e+000
    endloop
  endfacet
  facet normal -7.557495e-001  6.548608e-001  0.000000e+000
    outer loop
      vertex  1.178749e+001 -1.360349e+001  5.000000e+000
      vertex  1.178749e+001 -1.360349e+001  7.000000e+001
      vertex  1.514256e+001 -9.731535e+000  7.000000e+001
    endloop
  endfacet
  facet normal -7.557495e-001  6.548608e-001  0.000000e+000
    outer loop
      vertex  1.178749e+001 -1.360349e+001  5.000000e+000
      vertex  1.514256e+001 -9.731535e+000  7.000000e+001
      vertex  1.514256e+001 -9.731535e+000  5.000000e+000
    endloop
  endfacet
  facet normal -9.096320e-001  4.154151e-001  0.000000e+000
    outer loop
      vertex  1.514256e+001 -9.731535e+000  5.000000e+000
      vertex  1.514256e+001 -9.731535e+000  7.000000e+001
      vertex  1.727087e+001 -5.071186e+000  7.000000e+001
    endloop
  endfacet
  facet normal -9.096320e-001  4.154151e-001  0.000000e+000
    outer loop
      vertex  1.514256e+001 -9.731535e+000  5.000000e+000
      vertex  1.727087e+001 -5.071186e+000  7.000000e+001
      vertex  1.727087e+001 -5.071186e+000  5.000000e+000
    endloop
  endfacet
  facet normal -9.898214e-001  1.423147e-001  0.000000e+000
    outer loop
      vertex  1.727087e+001 -5.071186e+000  5.000000e+000
      vertex  1.727087e+001 -5.071186e+000  7.000000e+001
      vertex  1.800000e+001  0.000000e+000  7.000000e+001
    endloop
  endfacet
  facet normal -9.898214e-001  1.423147e-001 -9.652724e-018
    outer loop
      vertex  1.727087e+001 -5.071186e+000  5.000000e+000
      vertex  1.800000e+001  0.000000e+000  7.000000e+001
      vertex  1.800000e+001 -4.408729e-015  5.000000e+000
    endloop
  endfacet
  facet normal -2.817324e-001  9.594930e-001  0.000000e+000
    outer loop
      vertex  7.477470e+000 -1.637338e+001  7.000000e+001
      vertex  2.561667e+000 -1.781679e+001  5.000000e+000
      vertex  2.561667e+000 -1.781679e+001  7.000000e+001
    endloop
  endfacet
  facet normal  0.000000e+000  1.000000e+000  0.000000e+000
    outer loop
      vertex  2.561667e+000 -1.781679e+001  7.000000e+001
      vertex  2.561667e+000 -1.781679e+001  5.000000e+000
      vertex -2.561667e+000 -1.781679e+001  5.000000e+000
    endloop
  endfacet
  facet normal  0.000000e+000  1.000000e+000  0.000000e+000
    outer loop
      vertex  2.561667e+000 -1.781679e+001  7.000000e+001
      vertex -2.561667e+000 -1.781679e+001  5.000000e+000
      vertex -2.561667e+000 -1.781679e+001  7.000000e+001
    endloop
  endfacet
  facet normal  2.817324e-001  9.594930e-001  0.000000e+000
    outer loop
      vertex -2.561667e+000 -1.781679e+001  7.000000e+001
      vertex -2.561667e+000 -1.781679e+001  5.000000e+000
      vertex -7.477470e+000 -1.637338e+001  5.000000e+000
    endloop
  endfacet
  facet normal  2.817324e-001  9.594930e-001  -0.000000e+000
    outer loop
      vertex -2.561667e+000 -1.781679e+001  7.000000e+001
      vertex -7.477470e+000 -1.637338e+001  5.000000e+000
      vertex -7.477470e+000 -1.637338e+001  7.000000e+001
    endloop
  endfacet
  facet normal  5.406410e-001  8.412535e-001  0.000000e+000
    outer loop
      vertex -7.477470e+000 -1.637338e+001  7.000000e+001
      vertex -7.477470e+000 -1.637338e+001  5.000000e+000
      vertex -1.178749e+001 -1.360349e+001  5.000000e+000
    endloop
  endfacet
  facet normal  5.406410e-001  8.412535e-001  -0.000000e+000
    outer loop
      vertex -7.477470e+000 -1.637338e+001  7.000000e+001
      vertex -1.178749e+001 -1.360349e+001  5.000000e+000
      vertex -1.178749e+001 -1.360349e+001  7.000000e+001
    endloop
  endfacet
  facet normal  7.557495e-001  6.548608e-001  0.000000e+000
    outer loop
      vertex -1.178749e+001 -1.360349e+001  7.000000e+001
      vertex -1.178749e+001 -1.360349e+001  5.000000e+000
      vertex -1.514256e+001 -9.731535e+000  5.000000e+000
    endloop
  endfacet
  facet normal  7.557495e-001  6.548608e-001  -0.000000e+000
    outer loop
      vertex -1.178749e+001 -1.360349e+001  7.000000e+001
      vertex -1.514256e+001 -9.731535e+000  5.000000e+000
      vertex -1.514256e+001 -9.731535e+000  7.000000e+001
    endloop
  endfacet
  facet normal  9.096320e-001  4.154151e-001  0.000000e+000
    outer loop
      vertex -1.514256e+001 -9.731535e+000  7.000000e+001
      vertex -1.514256e+001 -9.731535e+000  5.000000e+000
      vertex -1.727087e+001 -5.071186e+000  5.000000e+000
    endloop
  endfacet
  facet normal  9.096320e-001  4.154151e-001  -0.000000e+000
    outer loop
      vertex -1.514256e+001 -9.731535e+000  7.000000e+001
      vertex -1.727087e+001 -5.071186e+000  5.000000e+000
      vertex -1.727087e+001 -5.071186e+000  7.000000e+001
    endloop
  endfacet
  facet normal  9.898214e-001  1.423147e-001  0.000000e+000
    outer loop
      vertex -1.727087e+001 -5.071186e+000  7.000000e+001
      vertex -1.727087e+001 -5.071186e+000  5.000000e+000
      vertex -1.800000e+001  2.204364e-015  5.000000e+000
    endloop
  endfacet
  facet normal  9.898214e-001  1.423147e-001  -0.000000e+000
    outer loop
      vertex -1.727087e+001 -5.071186e+000  7.000000e+001
      vertex -1.800000e+001  2.204364e-015  5.000000e+000
      vertex -1.800000e+001  2.204364e-015  7.000000e+001
    endloop
  endfacet
  facet normal  2.817324e-001 -9.594930e-001  0.000000e+000
    outer loop
      vertex -2.561667e+000  1.781679e+001  5.000000e+000
      vertex -7.477470e+000  1.637338e+001  7.000000e+001
      vertex -7.477470e+000  1.637338e+001  5.000000e+000
    endloop
  endfacet
  facet normal  5.406410e-001 -8.412535e-001  0.000000e+000
    outer loop
      vertex -7.477470e+000  1.637338e+001  5.000000e+000
      vertex -7.477470e+000  1.637338e+001  7.000000e+001
      vertex -1.178749e+001  1.360349e+001  7.000000e+001
    endloop
  endfacet
  facet normal  5.406410e-001 -8.412535e-001  0.000000e+000
    outer loop
      vertex -7.477470e+000  1.637338e+001  5.000000e+000
      vertex -1.178749e+001  1.360349e+001  7.000000e+001
      vertex -1.178749e+001  1.360349e+001  5.000000e+000
    endloop
  endfacet
  facet normal  7.557495e-001 -6.548608e-001  0.000000e+000
    outer loop
      vertex -1.178749e+001  1.360349e+001  5.000000e+000
      vertex -1.178749e+001  1.360349e+001  7.000000e+001
      vertex -1.514256e+001  9.731535e+000  7.000000e+001
    endloop
  endfacet
  facet normal  7.557495e-001 -6.548608e-001  0.000000e+000
    outer loop
      vertex -1.178749e+001  1.360349e+001  5.000000e+000
      vertex -1.514256e+001  9.731535e+000  7.000000e+001
      vertex -1.514256e+001  9.731535e+000  5.000000e+000
    endloop
  endfacet
  facet normal  9.096320e-001 -4.154151e-001  0.000000e+000
    outer loop
      vertex -1.514256e+001  9.731535e+000  5.000000e+000
      vertex -1.514256e+001  9.731535e+000  7.000000e+001
      vertex -1.727087e+001  5.071186e+000  7.000000e+001
    endloop
  endfacet
  facet normal  9.096320e-001 -4.154151e-001  0.000000e+000
    outer loop
      vertex -1.514256e+001  9.731535e+000  5.000000e+000
      vertex -1.727087e+001  5.071186e+000  7.000000e+001
      vertex -1.727087e+001  5.071186e+000  5.000000e+000
    endloop
  endfacet
  facet normal  9.898214e-001 -1.423147e-001  0.000000e+000
    outer loop
      vertex -1.727087e+001  5.071186e+000  5.000000e+000
      vertex -1.727087e+001  5.071186e+000  7.000000e+001
      vertex -1.800000e+001  2.204364e-015  7.000000e+001
    endloop
  endfacet
  facet normal  9.898214e-001 -1.423147e-001  0.000000e+000
    outer loop
      vertex -1.727087e+001  5.071186e+000  5.000000e+000
      vertex -1.800000e+001  2.204364e-015  7.000000e+001
      vertex -1.800000e+001  2.204364e-015  5.000000e+000
    endloop
  endfacet
  facet normal  2.817324e-001 -9.594930e-001  0.000000e+000
    outer loop
      vertex -7.477470e+000  1.637338e+001  7.000000e+001
      vertex -2.561667e+000  1.781679e+001  5.000000e+000
      vertex -2.561667e+000  1.781679e+001  7.000000e+001
    endloop
  endfacet
  facet normal  0.000000e+000 -1.000000e+000  0.000000e+000
    outer loop
      vertex -2.561667e+000  1.781679e+001  7.000000e+001
      vertex -2.561667e+000  1.781679e+001  5.000000e+000
      vertex  2.561667e+000  1.781679e+001  5.000000e+000
    endloop
  endfacet
  facet normal  0.000000e+000 -1.000000e+000  0.000000e+000
    outer loop
      vertex -2.561667e+000  1.781679e+001  7.000000e+001
      vertex  2.561667e+000  1.781679e+001  5.000000e+000
      vertex  2.561667e+000  1.781679e+001  7.000000e+001
    endloop
  endfacet
  facet normal -2.817324e-001 -9.594930e-001  -0.000000e+000
    outer loop
      vertex  2.561667e+000  1.781679e+001  7.000000e+001
      vertex  2.561667e+000  1.781679e+001  5.000000e+000
      vertex  7.477470e+000  1.637338e+001  5.000000e+000
    endloop
  endfacet
  facet normal -2.817324e-001 -9.594930e-001  0.000000e+000
    outer loop
      vertex  2.561667e+000  1.781679e+001  7.000000e+001
      vertex  7.477470e+000  1.637338e+001  5.000000e+000
      vertex  7.477470e+000  1.637338e+001  7.000000e+001
    endloop
  endfacet
  facet normal -5.406410e-001 -8.412535e-001  -0.000000e+000
    outer loop
      vertex  7.477470e+000  1.637338e+001  7.000000e+001
      vertex  7.477470e+000  1.637338e+001  5.000000e+000
      vertex  1.178749e+001  1.360349e+001  5.000000e+000
    endloop
  endfacet
  facet normal -5.406410e-001 -8.412535e-001  0.000000e+000
    outer loop
      vertex  7.477470e+000  1.637338e+001  7.000000e+001
      vertex  1.178749e+001  1.360349e+001  5.000000e+000
      vertex  1.178749e+001  1.360349e+001  7.000000e+001
    endloop
  endfacet
  facet normal -7.557495e-001 -6.548608e-001  -0.000000e+000
    outer loop
      vertex  1.178749e+001  1.360349e+001  7.000000e+001
      vertex  1.178749e+001  1.360349e+001  5.000000e+000
      vertex  1.514256e+001  9.731535e+000  5.000000e+000
    endloop
  endfacet
  facet normal -7.557495e-001 -6.548608e-001  0.000000e+000
    outer loop
      vertex  1.178749e+001  1.360349e+001  7.000000e+001
      vertex  1.514256e+001  9.731535e+000  5.000000e+000
      vertex  1.514256e+001  9.731535e+000  7.000000e+001
    endloop
  endfacet
  facet normal -9.096320e-001 -4.154151e-001  -0.000000e+000
    outer loop
      vertex  1.514256e+001  9.731535e+000  7.000000e+001
      vertex  1.514256e+001  9.731535e+000  5.000000e+000
      vertex  1.727087e+001  5.071186e+000  5.000000e+000
    endloop
  endfacet
  facet normal -9.096320e-001 -4.154151e-001  0.000000e+000
    outer loop
      vertex  1.514256e+001  9.731535e+000  7.000000e+001
      vertex  1.727087e+001  5.071186e+000  5.000000e+000
      vertex  1.727087e+001  5.071186e+000  7.000000e+001
    endloop
  endfacet
  facet normal -9.898214e-001 -1.423147e-001  -0.000000e+000
    outer loop
      vertex  1.727087e+001  5.071186e+000  7.000000e+001
      vertex  1.727087e+001  5.071186e+000  5.000000e+000
      vertex  1.800000e+001 -4.408729e-015  5.000000e+000
    endloop
  endfacet
  facet normal -9.898214e-001 -1.423147e-001  9.652724e-018
    outer loop
      vertex  1.727087e+001  5.071186e+000  7.000000e+001
      vertex  1.800000e+001 -4.408729e-015  5.000000e+000
      vertex  1.800000e+001  0.000000e+000  7.000000e+001
    endloop
  endfacet
  facet normal  0.000000e+000  0.000000e+000  1.000000e+000
    outer loop
      vertex  1.800000e+001 -4.408729e-015  5.000000e+000
      vertex  1.727087e+001  5.071186e+000  5.000000e+000
      vertex  1.727087e+001 -5.071186e+000  5.000000e+000
    endloop
  endfacet
  facet normal  0.000000e+000  0.000000e+000  1.000000e+000
    outer loop
      vertex  1.727087e+001 -5.071186e+000  5.000000e+000
      vertex  1.727087e+001  5.071186e+000  5.000000e+000
      vertex  1.514256e+001 -9.731535e+000  5.000000e+000
    endloop
  endfacet
  facet normal  0.000000e+000  0.000000e+000  1.000000e+000
    outer loop
      vertex  1.514256e+001 -9.731535e+000  5.000000e+000
      vertex  1.727087e+001  5.071186e+000  5.000000e+000
      vertex  1.514256e+001  9.731535e+000  5.000000e+000
    endloop
  endfacet
  facet normal  0.000000e+000  0.000000e+000  1.000000e+000
    outer loop
      vertex  1.514256e+001 -9.731535e+000  5.000000e+000
      vertex  1.514256e+001  9.731535e+000  5.000000e+000
      vertex  1.178749e+001 -1.360349e+001  5.000000e+000
    endloop
  endfacet
  facet normal  0.000000e+000  0.000000e+000  1.000000e+000
    outer loop
      vertex  1.178749e+001 -1.360349e+001  5.000000e+000
      vertex  1.514256e+001  9.731535e+000  5.000000e+000
      vertex  1.178749e+001  1.360349e+001  5.000000e+000
    endloop
  endfacet
  facet normal  0.000000e+000  0.000000e+000  1.000000e+000
    outer loop
      vertex  1.178749e+001 -1.360349e+001  5.000000e+000
      vertex  1.178749e+001  1.360349e+001  5.000000e+000
      vertex  7.477470e+000 -1.637338e+001  5.000000e+000
    endloop
  endfacet
  facet normal  0.000000e+000  0.000000e+000  1.000000e+000
    outer loop
      vertex  7.477470e+000 -1.637338e+001  5.000000e+000
      vertex  1.178749e+001  1.360349e+001  5.000000e+000
      vertex  7.477470e+000  1.637338e+001  5.000000e+000
    endloop
  endfacet
  facet normal  0.000000e+000  0.000000e+000  1.000000e+000
    outer loop
      vertex  7.477470e+000 -1.637338e+001  5.000000e+000
      vertex  7.477470e+000  1.637338e+001  5.000000e+000
      vertex  2.561667e+000 -1.781679e+001  5.000000e+000
    endloop
  endfacet
  facet normal  0.000000e+000  0.000000e+000  1.000000e+000
    outer loop
      vertex  2.561667e+000 -1.781679e+001  5.000000e+000
      vertex  7.477470e+000  1.637338e+001  5.000000e+000
      vertex  2.561667e+000  1.781679e+001  5.000000e+000
    endloop
  endfacet
  facet normal  0.000000e+000  0.000000e+000  9.999999e-001
    outer loop
      vertex  2.561667e+000 -1.781679e+001  5.000000e+000
      vertex  2.561667e+000  1.781679e+001  5.000000e+000
      vertex -2.561667e+000 -1.781679e+001  5.000000e+000
    endloop
  endfacet
  facet normal  0.000000e+000  0.000000e+000  9.999999e-001
    outer loop
      vertex -2.561667e+000 -1.781679e+001  5.000000e+000
      vertex  2.561667e+000  1.781679e+001  5.000000e+000
      vertex -2.561667e+000  1.781679e+001  5.000000e+000
    endloop
  endfacet
  facet normal  0.000000e+000  0.000000e+000  1.000000e+000
    outer loop
      vertex -2.561667e+000 -1.781679e+001  5.000000e+000
      vertex -2.561667e+000  1.781679e+001  5.000000e+000
      vertex -7.477470e+000 -1.637338e+001  5.000000e+000
    endloop
  endfacet
  facet normal  0.000000e+000  0.000000e+000  1.000000e+000
    outer loop
      vertex -7.477470e+000 -1.637338e+001  5.000000e+000
      vertex -2.561667e+000  1.781679e+001  5.000000e+000
      vertex -7.477470e+000  1.637338e+001  5.000000e+000
    endloop
  endfacet
  facet normal  0.000000e+000  0.000000e+000  1.000000e+000
    outer loop
      vertex -7.477470e+000 -1.637338e+001  5.000000e+000
      vertex -7.477470e+000  1.637338e+001  5.000000e+000
      vertex -1.178749e+001 -1.360349e+001  5.000000e+000
    endloop
  endfacet
  facet normal  0.000000e+000  0.000000e+000  1.000000e+000
    outer loop
      vertex -1.178749e+001 -1.360349e+001  5.000000e+000
      vertex -7.477470e+000  1.637338e+001  5.000000e+000
      vertex -1.178749e+001  1.360349e+001  5.000000e+000
    endloop
  endfacet
  facet normal  0.000000e+000  0.000000e+000  1.000000e+000
    outer loop
      vertex -1.178749e+001 -1.360349e+001  5.000000e+000
      vertex -1.178749e+001  1.360349e+001  5.000000e+000
      vertex -1.514256e+001 -9.731535e+000  5.000000e+000
    endloop
  endfacet
  facet normal  0.000000e+000  0.000000e+000  1.000000e+000
    outer loop
      vertex -1.514256e+001 -9.731535e+000  5.000000e+000
      vertex -1.178749e+001  1.360349e+001  5.000000e+000
      vertex -1.514256e+001  9.731535e+000  5.000000e+000
    endloop
  endfacet
  facet normal  0.000000e+000  0.000000e+000  1.000000e+000
    outer loop
      vertex -1.514256e+001 -9.731535e+000  5.000000e+000
      vertex -1.514256e+001  9.731535e+000  5.000000e+000
      vertex -1.727087e+001 -5.071186e+000  5.000000e+000
    endloop
  endfacet
  facet normal  0.000000e+000  0.000000e+000  1.000000e+000
    outer loop
      vertex -1.727087e+001 -5.071186e+000  5.000000e+000
      vertex -1.514256e+001  9.731535e+000  5.000000e+000
      vertex -1.727087e+001  5.071186e+000  5.000000e+000
    endloop
  endfacet
  facet normal  0.000000e+000  0.000000e+000  1.000000e+000
    outer loop
      vertex -1.727087e+001 -5.071186e+000  5.000000e+000
      vertex -1.727087e+001  5.071186e+000  5.000000e+000
      vertex -1.800000e+001  2.204364e-015  5.000000e+000
    endloop
  endfacet
  facet normal  0.000000e+000  0.000000e+000 -1.000000e+000
    outer loop
      vertex  1.408344e-015  2.300000e+001  0.000000e+000
      vertex  5.952838e+000  2.221629e+001  0.000000e+000
      vertex -5.952838e+000  2.221629e+001  0.000000e+000
    endloop
  endfacet
  facet normal  0.000000e+000  0.000000e+000 -1.000000e+000
    outer loop
      vertex -4.225031e-015 -2.300000e+001  0.000000e+000
      vertex -5.952838e+000 -2.221629e+001  0.000000e+000
      vertex  5.952838e+000 -2.221629e+001  0.000000e+000
    endloop
  endfacet
  facet normal  0.000000e+000  0.000000e+000 -1.000000e+000
    outer loop
      vertex  5.952838e+000 -2.221629e+001  0.000000e+000
      vertex -5.952838e+000 -2.221629e+001  0.000000e+000
      vertex -1.150000e+001 -1.991858e+001  0.000000e+000
    endloop
  endfacet
  facet normal  0.000000e+000  0.000000e+000 -9.999999e-001
    outer loop
      vertex  5.952838e+000 -2.221629e+001  0.000000e+000
      vertex -1.150000e+001 -1.991858e+001  0.000000e+000
      vertex  1.150000e+001 -1.991858e+001  0.000000e+000
    endloop
  endfacet
  facet normal  0.000000e+000  0.000000e+000 -1.000000e+000
    outer loop
      vertex  1.150000e+001 -1.991858e+001  0.000000e+000
      vertex -1.150000e+001 -1.991858e+001  0.000000e+000
      vertex -1.626346e+001 -1.626346e+001  0.000000e+000
    endloop
  endfacet
  facet normal  0.000000e+000  0.000000e+000 -9.999999e-001
    outer loop
      vertex  1.150000e+001 -1.991858e+001  0.000000e+000
      vertex -1.626346e+001 -1.626346e+001  0.000000e+000
      vertex  1.626346e+001 -1.626346e+001  0.000000e+000
    endloop
  endfacet
  facet normal  0.000000e+000  0.000000e+000 -1.000000e+000
    outer loop
      vertex  1.626346e+001 -1.626346e+001  0.000000e+000
      vertex -1.626346e+001 -1.626346e+001  0.000000e+000
      vertex -1.991858e+001 -1.150000e+001  0.000000e+000
    endloop
  endfacet
  facet normal  0.000000e+000  0.000000e+000 -1.000000e+000
    outer loop
      vertex  1.626346e+001 -1.626346e+001  0.000000e+000
      vertex -1.991858e+001 -1.150000e+001  0.000000e+000
      vertex  1.991858e+001 -1.150000e+001  0.000000e+000
    endloop
  endfacet
  facet normal  0.000000e+000  0.000000e+000 -1.000000e+000
    outer loop
      vertex  1.991858e+001 -1.150000e+001  0.000000e+000
      vertex -1.991858e+001 -1.150000e+001  0.000000e+000
      vertex -2.221629e+001 -5.952838e+000  0.000000e+000
    endloop
  endfacet
  facet normal  0.000000e+000  0.000000e+000 -9.999999e-001
    outer loop
      vertex  1.991858e+001 -1.150000e+001  0.000000e+000
      vertex -2.221629e+001 -5.952838e+000  0.000000e+000
      vertex  2.221629e+001 -5.952838e+000  0.000000e+000
    endloop
  endfacet
  facet normal  0.000000e+000  0.000000e+000 -1.000000e+000
    outer loop
      vertex  2.221629e+001 -5.952838e+000  0.000000e+000
      vertex -2.221629e+001 -5.952838e+000  0.000000e+000
      vertex -2.300000e+001  2.816688e-015  0.000000e+000
    endloop
  endfacet
  facet normal  0.000000e+000  0.000000e+000 -1.000000e+000
    outer loop
      vertex  2.221629e+001 -5.952838e+000  0.000000e+000
      vertex -2.300000e+001  2.816688e-015  0.000000e+000
      vertex  2.300000e+001  0.000000e+000  0.000000e+000
    endloop
  endfacet
  facet normal  0.000000e+000  0.000000e+000 -1.000000e+000
    outer loop
      vertex  2.300000e+001  0.000000e+000  0.000000e+000
      vertex -2.300000e+001  2.816688e-015  0.000000e+000
      vertex -2.221629e+001  5.952838e+000  0.000000e+000
    endloop
  endfacet
  facet normal  0.000000e+000  0.000000e+000 -1.000000e+000
    outer loop
      vertex  2.300000e+001  0.000000e+000  0.000000e+000
      vertex -2.221629e+001  5.952838e+000  0.000000e+000
      vertex  2.221629e+001  5.952838e+000  0.000000e+000
    endloop
  endfacet
  facet normal  0.000000e+000  0.000000e+000 -9.999999e-001
    outer loop
      vertex  2.221629e+001  5.952838e+000  0.000000e+000
      vertex -2.221629e+001  5.952838e+000  0.000000e+000
      vertex -1.991858e+001  1.150000e+001  0.000000e+000
    endloop
  endfacet
  facet normal  0.000000e+000  0.000000e+000 -1.000000e+000
    outer loop
      vertex  2.221629e+001  5.952838e+000  0.000000e+000
      vertex -1.991858e+001  1.150000e+001  0.000000e+000
      vertex  1.991858e+001  1.150000e+001  0.000000e+000
    endloop
  endfacet
  facet normal  0.000000e+000  0.000000e+000 -1.000000e+000
    outer loop
      vertex  1.991858e+001  1.150000e+001  0.000000e+000
      vertex -1.991858e+001  1.150000e+001  0.000000e+000
      vertex -1.626346e+001  1.626346e+001  0.000000e+000
    endloop
  endfacet
  facet normal  0.000000e+000  0.000000e+000 -1.000000e+000
    outer loop
      vertex  1.991858e+001  1.150000e+001  0.000000e+000
      vertex -1.626346e+001  1.626346e+001  0.000000e+000
      vertex  1.626346e+001  1.626346e+001  0.000000e+000
    endloop
  endfacet
  facet normal  0.000000e+000  0.000000e+000 -9.999999e-001
    outer loop
      vertex  1.626346e+001  1.626346e+001  0.000000e+000
      vertex -1.626346e+001  1.626346e+001  0.000000e+000
      vertex -1.150000e+001  1.991858e+001  0.000000e+000
    endloop
  endfacet
  facet normal  0.000000e+000  0.000000e+000 -1.000000e+000
    outer loop
      vertex  1.626346e+001  1.626346e+001  0.000000e+000
      vertex -1.150000e+001  1.991858e+001  0.000000e+000
      vertex  1.150000e+001  1.991858e+001  0.000000e+000
    endloop
  endfacet
  facet normal  0.000000e+000  0.000000e+000 -9.999999e-001
    outer loop
      vertex  1.150000e+001  1.991858e+001  0.000000e+000
      vertex -1.150000e+001  1.991858e+001  0.000000e+000
      vertex -5.952838e+000  2.221629e+001  0.000000e+000
    endloop
  endfacet
  facet normal  0.000000e+000  0.000000e+000 -1.000000e+000
    outer loop
      vertex  1.150000e+001  1.991858e+001  0.000000e+000
      vertex -5.952838e+000  2.221629e+001  0.000000e+000
      vertex  5.952838e+000  2.221629e+001  0.000000e+000
    endloop
  endfacet
  facet normal  9.914449e-001 -1.305263e-001  0.000000e+000
    outer loop
      vertex  2.300000e+001  0.000000e+000  0.000000e+000
      vertex  2.300000e+001  0.000000e+000  7.000000e+001
      vertex  2.221629e+001 -5.952838e+000  0.000000e+000
    endloop
  endfacet
  facet normal  9.914449e-001 -1.305263e-001  0.000000e+000
    outer loop
      vertex  2.221629e+001 -5.952838e+000  0.000000e+000
      vertex  2.300000e+001  0.000000e+000  7.000000e+001
      vertex  2.221629e+001 -5.952838e+000  7.000000e+001
    endloop
  endfacet
  facet normal  9.238796e-001 -3.826833e-001  0.000000e+000
    outer loop
      vertex  2.221629e+001 -5.952838e+000  0.000000e+000
      vertex  2.221629e+001 -5.952838e+000  7.000000e+001
      vertex  1.991858e+001 -1.150000e+001  0.000000e+000
    endloop
  endfacet
  facet normal  9.238796e-001 -3.826833e-001  0.000000e+000
    outer loop
      vertex  1.991858e+001 -1.150000e+001  0.000000e+000
      vertex  2.221629e+001 -5.952838e+000  7.000000e+001
      vertex  1.991858e+001 -1.150000e+001  7.000000e+001
    endloop
  endfacet
  facet normal  7.933533e-001 -6.087614e-001  0.000000e+000
    outer loop
      vertex  1.991858e+001 -1.150000e+001  0.000000e+000
      vertex  1.991858e+001 -1.150000e+001  7.000000e+001
      vertex  1.626346e+001 -1.626346e+001  0.000000e+000
    endloop
  endfacet
  facet normal  7.933533e-001 -6.087614e-001  0.000000e+000
    outer loop
      vertex  1.626346e+001 -1.626346e+001  0.000000e+000
      vertex  1.991858e+001 -1.150000e+001  7.000000e+001
      vertex  1.626346e+001 -1.626346e+001  7.000000e+001
    endloop
  endfacet
  facet normal  6.087614e-001 -7.933533e-001  0.000000e+000
    outer loop
      vertex  1.626346e+001 -1.626346e+001  0.000000e+000
      vertex  1.626346e+001 -1.626346e+001  7.000000e+001
      vertex  1.150000e+001 -1.991858e+001  0.000000e+000
    endloop
  endfacet
  facet normal  6.087614e-001 -7.933533e-001  0.000000e+000
    outer loop
      vertex  1.150000e+001 -1.991858e+001  0.000000e+000
      vertex  1.626346e+001 -1.626346e+001  7.000000e+001
      vertex  1.150000e+001 -1.991858e+001  7.000000e+001
    endloop
  endfacet
  facet normal  3.826833e-001 -9.238796e-001  0.000000e+000
    outer loop
      vertex  1.150000e+001 -1.991858e+001  0.000000e+000
      vertex  1.150000e+001 -1.991858e+001  7.000000e+001
      vertex  5.952838e+000 -2.221629e+001  0.000000e+000
    endloop
  endfacet
  facet normal  3.826833e-001 -9.238796e-001  0.000000e+000
    outer loop
      vertex  5.952838e+000 -2.221629e+001  0.000000e+000
      vertex  1.150000e+001 -1.991858e+001  7.000000e+001
      vertex  5.952838e+000 -2.221629e+001  7.000000e+001
    endloop
  endfacet
  facet normal  1.305263e-001 -9.914449e-001  0.000000e+000
    outer loop
      vertex  5.952838e+000 -2.221629e+001  0.000000e+000
      vertex  5.952838e+000 -2.221629e+001  7.000000e+001
      vertex -4.225031e-015 -2.300000e+001  0.000000e+000
    endloop
  endfacet
  facet normal  1.305263e-001 -9.914449e-001  0.000000e+000
    outer loop
      vertex -4.225031e-015 -2.300000e+001  0.000000e+000
      vertex  5.952838e+000 -2.221629e+001  7.000000e+001
      vertex -4.225031e-015 -2.300000e+001  7.000000e+001
    endloop
  endfacet
  facet normal -1.305263e-001 -9.914449e-001  -0.000000e+000
    outer loop
      vertex -4.225031e-015 -2.300000e+001  0.000000e+000
      vertex -4.225031e-015 -2.300000e+001  7.000000e+001
      vertex -5.952838e+000 -2.221629e+001  0.000000e+000
    endloop
  endfacet
  facet normal -1.305263e-001 -9.914449e-001  0.000000e+000
    outer loop
      vertex -5.952838e+000 -2.221629e+001  0.000000e+000
      vertex -4.225031e-015 -2.300000e+001  7.000000e+001
      vertex -5.952838e+000 -2.221629e+001  7.000000e+001
    endloop
  endfacet
  facet normal -3.826833e-001 -9.238796e-001  -0.000000e+000
    outer loop
      vertex -5.952838e+000 -2.221629e+001  0.000000e+000
      vertex -5.952838e+000 -2.221629e+001  7.000000e+001
      vertex -1.150000e+001 -1.991858e+001  0.000000e+000
    endloop
  endfacet
  facet normal -3.826833e-001 -9.238796e-001  0.000000e+000
    outer loop
      vertex -1.150000e+001 -1.991858e+001  0.000000e+000
      vertex -5.952838e+000 -2.221629e+001  7.000000e+001
      vertex -1.150000e+001 -1.991858e+001  7.000000e+001
    endloop
  endfacet
  facet normal -6.087614e-001 -7.933533e-001  -0.000000e+000
    outer loop
      vertex -1.150000e+001 -1.991858e+001  0.000000e+000
      vertex -1.150000e+001 -1.991858e+001  7.000000e+001
      vertex -1.626346e+001 -1.626346e+001  0.000000e+000
    endloop
  endfacet
  facet normal -6.087614e-001 -7.933533e-001  0.000000e+000
    outer loop
      vertex -1.626346e+001 -1.626346e+001  0.000000e+000
      vertex -1.150000e+001 -1.991858e+001  7.000000e+001
      vertex -1.626346e+001 -1.626346e+001  7.000000e+001
    endloop
  endfacet
  facet normal -7.933533e-001 -6.087614e-001  -0.000000e+000
    outer loop
      vertex -1.626346e+001 -1.626346e+001  0.000000e+000
      vertex -1.626346e+001 -1.626346e+001  7.000000e+001
      vertex -1.991858e+001 -1.150000e+001  0.000000e+000
    endloop
  endfacet
  facet normal -7.933533e-001 -6.087614e-001  0.000000e+000
    outer loop
      vertex -1.991858e+001 -1.150000e+001  0.000000e+000
      vertex -1.626346e+001 -1.626346e+001  7.000000e+001
      vertex -1.991858e+001 -1.150000e+001  7.000000e+001
    endloop
  endfacet
  facet normal -9.238796e-001 -3.826833e-001  -0.000000e+000
    outer loop
      vertex -1.991858e+001 -1.150000e+001  0.000000e+000
      vertex -1.991858e+001 -1.150000e+001  7.000000e+001
      vertex -2.221629e+001 -5.952838e+000  0.000000e+000
    endloop
  endfacet
  facet normal -9.238796e-001 -3.826833e-001  0.000000e+000
    outer loop
      vertex -2.221629e+001 -5.952838e+000  0.000000e+000
      vertex -1.991858e+001 -1.150000e+001  7.000000e+001
      vertex -2.221629e+001 -5.952838e+000  7.000000e+001
    endloop
  endfacet
  facet normal -9.914449e-001 -1.305263e-001  -0.000000e+000
    outer loop
      vertex -2.221629e+001 -5.952838e+000  0.000000e+000
      vertex -2.221629e+001 -5.952838e+000  7.000000e+001
      vertex -2.300000e+001  2.816688e-015  0.000000e+000
    endloop
  endfacet
  facet normal -9.914449e-001 -1.305263e-001  0.000000e+000
    outer loop
      vertex -2.300000e+001  2.816688e-015  0.000000e+000
      vertex -2.221629e+001 -5.952838e+000  7.000000e+001
      vertex -2.300000e+001  2.816688e-015  7.000000e+001
    endloop
  endfacet
  facet normal -9.914449e-001  1.305263e-001  0.000000e+000
    outer loop
      vertex -2.300000e+001  2.816688e-015  0.000000e+000
      vertex -2.300000e+001  2.816688e-015  7.000000e+001
      vertex -2.221629e+001  5.952838e+000  0.000000e+000
    endloop
  endfacet
  facet normal -9.914449e-001  1.305263e-001  0.000000e+000
    outer loop
      vertex -2.221629e+001  5.952838e+000  0.000000e+000
      vertex -2.300000e+001  2.816688e-015  7.000000e+001
      vertex -2.221629e+001  5.952838e+000  7.000000e+001
    endloop
  endfacet
  facet normal -9.238796e-001  3.826833e-001  0.000000e+000
    outer loop
      vertex -2.221629e+001  5.952838e+000  0.000000e+000
      vertex -2.221629e+001  5.952838e+000  7.000000e+001
      vertex -1.991858e+001  1.150000e+001  0.000000e+000
    endloop
  endfacet
  facet normal -9.238796e-001  3.826833e-001  0.000000e+000
    outer loop
      vertex -1.991858e+001  1.150000e+001  0.000000e+000
      vertex -2.221629e+001  5.952838e+000  7.000000e+001
      vertex -1.991858e+001  1.150000e+001  7.000000e+001
    endloop
  endfacet
  facet normal -7.933533e-001  6.087614e-001  0.000000e+000
    outer loop
      vertex -1.991858e+001  1.150000e+001  0.000000e+000
      vertex -1.991858e+001  1.150000e+001  7.000000e+001
      vertex -1.626346e+001  1.626346e+001  0.000000e+000
    endloop
  endfacet
  facet normal -7.933533e-001  6.087614e-001  0.000000e+000
    outer loop
      vertex -1.626346e+001  1.626346e+001  0.000000e+000
      vertex -1.991858e+001  1.150000e+001  7.000000e+001
      vertex -1.626346e+001  1.626346e+001  7.000000e+001
    endloop
  endfacet
  facet normal -6.087614e-001  7.933533e-001  0.000000e+000
    outer loop
      vertex -1.626346e+001  1.626346e+001  0.000000e+000
      vertex -1.626346e+001  1.626346e+001  7.000000e+001
      vertex -1.150000e+001  1.991858e+001  0.000000e+000
    endloop
  endfacet
  facet normal -6.087614e-001  7.933533e-001  0.000000e+000
    outer loop
      vertex -1.150000e+001  1.991858e+001  0.000000e+000
      vertex -1.626346e+001  1.626346e+001  7.000000e+001
      vertex -1.150000e+001  1.991858e+001  7.000000e+001
    endloop
  endfacet
  facet normal -3.826833e-001  9.238796e-001  0.000000e+000
    outer loop
      vertex -1.150000e+001  1.991858e+001  0.000000e+000
      vertex -1.150000e+001  1.991858e+001  7.000000e+001
      vertex -5.952838e+000  2.221629e+001  0.000000e+000
    endloop
  endfacet
  facet normal -3.826833e-001  9.238796e-001  0.000000e+000
    outer loop
      vertex -5.952838e+000  2.221629e+001  0.000000e+000
      vertex -1.150000e+001  1.991858e+001  7.000000e+001
      vertex -5.952838e+000  2.221629e+001  7.000000e+001
    endloop
  endfacet
  facet normal -1.305263e-001  9.914449e-001  0.000000e+000
    outer loop
      vertex -5.952838e+000  2.221629e+001  0.000000e+000
      vertex -5.952838e+000  2.221629e+001  7.000000e+001
      vertex  1.408344e-015  2.300000e+001  0.000000e+000
    endloop
  endfacet
  facet normal -1.305263e-001  9.914449e-001  0.000000e+000
    outer loop
      vertex  1.408344e-015  2.300000e+001  0.000000e+000
      vertex -5.952838e+000  2.221629e+001  7.000000e+001
      vertex  1.408344e-015  2.300000e+001  7.000000e+001
    endloop
  endfacet
  facet normal  1.305263e-001  9.914449e-001  0.000000e+000
    outer loop
      vertex  1.408344e-015  2.300000e+001  0.000000e+000
      vertex  1.408344e-015  2.300000e+001  7.000000e+001
      vertex  5.952838e+000  2.221629e+001  0.000000e+000
    endloop
  endfacet
  facet normal  1.305263e-001  9.914449e-001  -0.000000e+000
    outer loop
      vertex  5.952838e+000  2.221629e+001  0.000000e+000
      vertex  1.408344e-015  2.300000e+001  7.000000e+001
      vertex  5.952838e+000  2.221629e+001  7.000000e+001
    endloop
  endfacet
  facet normal  3.826833e-001  9.238796e-001  0.000000e+000
    outer loop
      vertex  5.952838e+000  2.221629e+001  0.000000e+000
      vertex  5.952838e+000  2.221629e+001  7.000000e+001
      vertex  1.150000e+001  1.991858e+001  0.000000e+000
    endloop
  endfacet
  facet normal  3.826833e-001  9.238796e-001  -0.000000e+000
    outer loop
      vertex  1.150000e+001  1.991858e+001  0.000000e+000
      vertex  5.952838e+000  2.221629e+001  7.000000e+001
      vertex  1.150000e+001  1.991858e+001  7.000000e+001
    endloop
  endfacet
  facet normal  6.087614e-001  7.933533e-001  0.000000e+000
    outer loop
      vertex  1.150000e+001  1.991858e+001  0.000000e+000
      vertex  1.150000e+001  1.991858e+001  7.000000e+001
      vertex  1.626346e+001  1.626346e+001  0.000000e+000
    endloop
  endfacet
  facet normal  6.087614e-001  7.933533e-001  -0.000000e+000
    outer loop
      vertex  1.626346e+001  1.626346e+001  0.000000e+000
      vertex  1.150000e+001  1.991858e+001  7.000000e+001
      vertex  1.626346e+001  1.626346e+001  7.000000e+001
    endloop
  endfacet
  facet normal  7.933533e-001  6.087614e-001  0.000000e+000
    outer loop
      vertex  1.626346e+001  1.626346e+001  0.000000e+000
      vertex  1.626346e+001  1.626346e+001  7.000000e+001
      vertex  1.991858e+001  1.150000e+001  0.000000e+000
    endloop
  endfacet
  facet normal  7.933533e-001  6.087614e-001  -0.000000e+000
    outer loop
      vertex  1.991858e+001  1.150000e+001  0.000000e+000
      vertex  1.626346e+001  1.626346e+001  7.000000e+001
      vertex  1.991858e+001  1.150000e+001  7.000000e+001
    endloop
  endfacet
  facet normal  9.238796e-001  3.826833e-001  0.000000e+000
    outer loop
      vertex  1.991858e+001  1.150000e+001  0.000000e+000
      vertex  1.991858e+001  1.150000e+001  7.000000e+001
      vertex  2.221629e+001  5.952838e+000  0.000000e+000
    endloop
  endfacet
  facet normal  9.238796e-001  3.826833e-001  -0.000000e+000
    outer loop
      vertex  2.221629e+001  5.952838e+000  0.000000e+000
      vertex  1.991858e+001  1.150000e+001  7.000000e+001
      vertex  2.221629e+001  5.952838e+000  7.000000e+001
    endloop
  endfacet
  facet normal  9.914449e-001  1.305263e-001  0.000000e+000
    outer loop
      vertex  2.221629e+001  5.952838e+000  0.000000e+000
      vertex  2.221629e+001  5.952838e+000  7.000000e+001
      vertex  2.300000e+001  0.000000e+000  0.000000e+000
    endloop
  endfacet
  facet normal  9.914449e-001  1.305263e-001  -0.000000e+000
    outer loop
      vertex  2.300000e+001  0.000000e+000  0.000000e+000
      vertex  2.221629e+001  5.952838e+000  7.000000e+001
      vertex  2.300000e+001  0.000000e+000  7.000000e+001
    endloop
  endfacet
endsolid CATIA STL
